<?xml version="1.0" standalone="no"?>
<!DOCTYPE svg PUBLIC "-//W3C//DTD SVG 20010904//EN"
 "http://www.w3.org/TR/2001/REC-SVG-20010904/DTD/svg10.dtd">
<svg version="1.0" xmlns="http://www.w3.org/2000/svg"
 width="212.000000pt" height="243.000000pt" viewBox="0 0 212.000000 243.000000"
 preserveAspectRatio="xMidYMid meet">

<g transform="translate(0.000000,243.000000) scale(0.100000,-0.100000)"
fill="#000000" stroke="none">
<path d="M815 2246 c-69 -30 -145 -156 -153 -254 -4 -41 -10 -57 -30 -73 l-26
-20 -14 23 -13 23 5 -23 c3 -15 -4 -32 -19 -50 l-24 -27 -12 33 c-15 44 -24
33 -10 -11 10 -30 9 -41 -8 -73 -37 -72 -36 -140 4 -295 4 -17 0 -32 -13 -49
l-19 -24 -96 32 c-52 18 -104 32 -114 32 -10 -1 22 -14 71 -30 49 -16 92 -32
97 -37 4 -4 -1 -18 -11 -30 -14 -18 -36 -25 -96 -34 -77 -10 -240 -56 -231
-65 2 -2 23 2 46 11 50 17 192 45 232 45 23 0 29 -5 29 -20 0 -52 67 -125 165
-181 50 -28 70 -49 45 -49 -13 0 -78 -90 -182 -254 -49 -77 -102 -153 -116
-169 -39 -41 -125 -77 -186 -77 -29 0 -57 -5 -64 -12 -16 -16 -15 -43 3 -58
20 -17 19 -27 -5 -33 -11 -3 -20 -14 -20 -25 0 -47 67 -65 176 -46 l77 13 34
-29 c44 -39 76 -47 108 -26 30 20 32 37 5 61 -28 26 -27 81 3 96 27 15 153
109 185 139 20 19 22 19 22 3 4 -181 23 -310 58 -382 29 -62 29 -76 1 -205
-17 -79 -18 -109 -5 -95 2 2 15 52 28 110 l23 107 45 -40 c103 -91 200 -123
287 -94 74 24 117 65 137 130 11 36 15 67 10 93 -7 40 -52 139 -85 185 -10 14
-19 29 -19 32 0 3 -19 38 -43 78 -24 40 -44 78 -46 83 -9 37 -107 218 -124
230 -26 18 -37 10 -67 -55 -13 -27 -30 -50 -37 -50 -8 0 -11 5 -7 12 4 6 3 8
-2 5 -5 -3 -22 19 -38 48 -15 30 -37 57 -47 60 -15 5 -17 10 -8 26 5 11 9 28
7 37 -2 10 -12 -6 -23 -36 -10 -28 -22 -52 -27 -52 -4 0 -6 6 -4 13 3 6 7 26
10 42 6 28 5 29 -9 11 -15 -20 -21 -96 -7 -96 4 0 3 -36 -3 -79 -9 -69 -14
-84 -40 -109 -56 -53 -196 -151 -209 -146 -19 7 -9 -85 11 -108 9 -10 13 -25
9 -34 -9 -23 -65 -11 -91 21 -26 31 -35 32 -125 16 -66 -11 -80 -11 -113 2
-57 24 -48 44 23 49 33 2 65 9 71 15 7 7 -2 8 -33 3 -24 -5 -44 -7 -46 -5 -2
1 12 12 30 24 34 21 23 30 -13 10 -27 -14 -59 -2 -59 22 0 16 7 19 52 19 36 0
70 9 117 31 66 31 94 56 132 117 12 17 26 29 31 26 7 -4 8 -2 4 4 -4 6 17 46
45 89 29 43 67 101 85 128 43 64 74 99 100 113 28 15 109 -11 142 -44 57 -60
93 -61 170 -9 34 23 37 24 43 8 6 -15 8 -14 17 8 12 30 55 67 88 75 84 21 298
-175 425 -389 27 -45 41 -60 69 -68 51 -14 110 -48 85 -49 -12 0 -15 -3 -10
-9 6 -6 39 -11 75 -13 74 -3 91 -24 45 -54 -23 -15 -35 -16 -75 -8 -60 13 -57
3 7 -21 64 -23 73 -33 49 -51 -27 -19 -56 -18 -123 6 -32 11 -62 20 -68 20 -6
0 -35 -18 -64 -40 -56 -42 -93 -49 -99 -18 -2 10 5 30 16 45 11 16 23 47 26
69 7 38 5 44 -23 70 -17 16 -86 60 -154 98 -67 37 -135 77 -150 88 -15 11 -33
17 -40 15 -7 -2 9 -17 36 -33 26 -16 50 -38 54 -49 13 -41 61 -107 136 -184
61 -65 77 -87 77 -111 0 -22 6 -33 24 -41 29 -14 48 -76 76 -260 12 -73 23
-135 25 -138 13 -12 13 13 0 99 -21 135 -23 126 38 134 28 4 97 26 152 49 87
35 109 41 170 39 39 0 92 -8 120 -16 27 -8 51 -14 53 -12 2 3 -16 16 -40 30
-111 65 -213 75 -311 32 -74 -33 -144 -49 -184 -41 -24 4 -34 13 -42 37 -6 18
-8 34 -4 38 115 92 108 90 183 60 64 -25 112 -26 133 -2 22 24 21 39 -3 54
-19 12 -18 13 12 24 26 8 34 17 36 39 4 34 -18 55 -60 55 -16 0 -60 16 -98 35
-38 19 -77 35 -87 35 -11 0 -28 19 -44 48 -81 144 -257 344 -338 384 l-34 16
39 25 c21 14 52 39 68 56 20 21 39 31 60 31 119 2 291 151 375 325 56 115 75
204 69 328 -6 119 -31 190 -84 237 -82 71 -191 44 -369 -94 l-57 -45 -49 18
c-26 10 -76 37 -110 60 -70 47 -88 53 -44 15 49 -42 113 -84 147 -96 l31 -11
-34 -28 c-19 -15 -31 -30 -28 -33 3 -3 50 28 104 69 173 128 271 175 334 160
44 -11 118 -86 105 -107 -3 -4 3 -19 13 -34 12 -18 18 -53 21 -114 5 -109 -20
-220 -79 -340 -70 -142 -230 -280 -326 -280 l-32 0 27 53 c24 45 27 64 27 144
l0 93 29 0 c19 0 39 11 62 34 40 40 46 67 8 37 -34 -27 -74 -27 -102 -1 -31
29 -37 65 -24 141 24 137 83 228 184 278 72 36 91 38 143 11 45 -23 54 -21 24
6 -16 14 -34 19 -78 17 -76 -2 -100 -6 -95 -15 3 -4 -1 -8 -8 -8 -24 0 -113
-87 -140 -137 -34 -61 -58 -152 -58 -214 0 -72 45 -117 110 -110 l25 2 -23
-16 c-17 -12 -35 -16 -63 -12 -43 6 -46 3 -23 -21 13 -13 15 -30 11 -86 -5
-84 -31 -147 -89 -222 -56 -71 -106 -104 -158 -104 l-41 0 14 28 c8 15 17 45
20 67 7 44 1 33 -29 -49 -18 -53 -68 -116 -95 -119 -9 -2 -31 -15 -48 -30 -18
-15 -43 -30 -56 -33 -29 -7 -75 16 -108 55 -13 16 -27 27 -30 24 -3 -3 -26 4
-51 16 -47 23 -77 64 -94 125 l-10 35 51 -6 c63 -7 87 -26 134 -111 20 -35 45
-68 57 -73 51 -24 111 34 142 136 10 33 19 61 20 63 1 2 24 10 51 18 l48 14
-45 -7 c-64 -10 -101 -6 -119 12 -15 15 -7 16 96 13 62 -2 109 0 105 4 -4 4
-55 10 -115 14 -73 5 -107 11 -107 19 0 17 94 42 235 63 66 9 109 18 96 20
-33 5 -171 -16 -253 -37 -38 -10 -68 -14 -68 -9 0 10 36 47 66 66 10 7 3 5
-16 -5 -19 -9 -38 -16 -42 -15 -5 1 -8 -7 -8 -18 0 -11 -9 -29 -19 -39 -11
-11 -16 -21 -12 -23 4 -2 11 -17 14 -34 4 -23 1 -36 -11 -47 -35 -31 -128 -41
-158 -16 -7 5 -24 7 -38 3 -70 -17 -146 31 -146 92 0 41 36 70 76 60 l25 -7
-22 -18 c-22 -18 -23 -19 -5 -45 9 -15 23 -29 31 -32 18 -7 94 33 102 53 9 22
-23 43 -64 43 -20 0 -36 6 -39 14 -3 8 4 53 15 100 12 46 21 110 21 141 0 55
-21 115 -40 115 -11 0 -35 36 -44 66 -5 18 -1 24 23 32 23 8 32 7 42 -4 6 -8
16 -14 22 -14 6 0 1 11 -12 24 l-22 23 60 26 c98 42 187 60 303 61 60 1 108 4
108 7 0 6 -100 39 -116 39 -5 -1 5 -7 21 -15 l30 -13 -37 -1 c-39 -1 -60 16
-38 29 9 5 -2 12 -31 19 l-44 10 50 -4 c28 -1 74 -12 104 -24 l55 -20 -43 43
c-24 24 -44 48 -45 52 0 5 -5 8 -9 6 -5 -1 -6 2 -3 7 4 5 -8 19 -25 32 l-31
22 12 -22 c6 -13 28 -41 48 -63 28 -31 32 -39 17 -35 -11 3 -32 9 -47 13 -22
5 -35 21 -62 78 -24 49 -43 76 -61 84 -14 7 -27 12 -28 12 -1 -1 -16 -7 -32
-14z m68 -34 c17 -18 47 -84 47 -102 0 -6 -30 -10 -72 -11 -40 -1 -86 -5 -103
-9 l-30 -8 37 -1 c69 -2 193 -24 200 -35 13 -19 9 -26 -18 -26 -38 0 -163 -30
-213 -52 -24 -10 -45 -17 -47 -15 -2 2 1 29 6 61 24 147 135 262 193 198z m20
-129 c-7 -2 -19 -2 -25 0 -7 3 -2 5 12 5 14 0 19 -2 13 -5z m-287 -300 c-7 -7
-45 20 -51 36 -3 7 0 20 7 28 10 12 15 8 30 -23 10 -21 16 -39 14 -41z m-48
-66 c-23 -60 -27 -170 -8 -234 11 -36 10 -44 -6 -66 -16 -20 -23 -23 -41 -14
-21 9 -21 10 -2 30 23 25 24 50 4 142 -20 94 -18 141 5 194 l20 44 24 -22 24
-22 -20 -52z m101 22 c14 -41 14 -95 -1 -161 -9 -44 -12 -49 -17 -29 -16 64
-55 16 -49 -60 2 -31 -1 -49 -8 -49 -18 0 -34 72 -34 152 0 92 36 178 75 178
17 0 26 -8 34 -31z m-158 -349 l24 -19 -47 -1 c-49 0 -61 11 -30 29 24 14 27
14 53 -9z m209 0 c0 -5 -18 -10 -40 -10 -22 0 -40 5 -40 10 0 6 18 10 40 10
22 0 40 -4 40 -10z m-168 -70 c15 -21 29 -54 33 -72 4 -18 14 -46 22 -61 8
-16 12 -31 9 -35 -3 -3 -6 0 -6 6 0 7 -3 11 -7 10 -31 -8 -158 102 -169 146
-8 34 6 46 57 46 30 0 39 -6 61 -40z m205 -441 c62 -97 77 -100 118 -19 14 27
32 50 40 50 9 0 48 -67 103 -177 49 -98 108 -209 131 -247 65 -105 84 -161 78
-228 -9 -103 -62 -156 -166 -165 -73 -7 -115 7 -190 62 -61 45 -125 129 -153
200 -26 68 -41 212 -36 370 5 196 24 234 75 154z m540 -191 c138 -81 153 -94
153 -137 0 -20 -7 -44 -15 -55 -13 -17 -19 -13 -103 70 -49 49 -99 108 -111
132 -12 23 -19 42 -17 42 2 0 44 -23 93 -52z m644 -342 c33 -14 31 -14 -46 -9
-72 5 -87 3 -145 -22 -99 -41 -178 -65 -216 -65 -30 0 -34 3 -34 25 0 24 3 25
58 25 42 1 80 10 142 36 74 30 93 34 146 30 34 -3 77 -12 95 -20z"/>
<path d="M907 1937 c-8 -30 -1 -90 15 -121 8 -14 3 -26 -26 -55 -19 -20 -43
-55 -54 -78 -10 -24 -21 -41 -23 -38 -3 2 -5 -45 -5 -105 1 -102 0 -110 -18
-110 -11 0 -17 -3 -14 -6 4 -3 27 -2 52 1 42 7 46 10 56 44 14 49 13 74 -4 96
-19 27 -42 6 -55 -48 l-9 -42 -1 56 c-3 142 100 295 175 260 21 -9 24 -17 24
-63 -1 -49 -17 -101 -74 -231 -9 -22 -13 -36 -7 -33 14 9 89 205 97 255 5 34
3 48 -13 69 -25 34 -33 67 -26 103 4 23 11 29 32 29 49 0 64 -20 59 -79 -3
-32 -2 -49 4 -43 14 14 12 111 -3 128 -8 10 -24 14 -46 12 -25 -3 -33 0 -33
12 -1 11 -4 10 -12 -5 -6 -11 -19 -26 -27 -33 -9 -8 -11 -11 -4 -8 8 4 11 -9
10 -44 -1 -27 -5 -50 -8 -50 -20 0 -44 48 -49 99 -5 48 -6 52 -13 28z"/>
<path d="M1100 1306 c0 -9 8 -12 27 -8 25 5 25 6 8 13 -29 11 -35 10 -35 -5z"/>
<path d="M746 1052 c-3 -5 1 -9 9 -9 8 0 12 4 9 9 -3 4 -7 8 -9 8 -2 0 -6 -4
-9 -8z"/>
<path d="M1078 47 l24 -14 -24 -16 c-20 -14 -20 -16 -5 -16 10 -1 27 4 39 10
14 8 28 7 49 -2 16 -6 32 -9 35 -7 9 10 -70 50 -106 55 -34 4 -34 4 -12 -10z"/>
</g>
</svg>
